<svg width="528" height="35" viewBox="0 0 528 35" fill="none" xmlns="http://www.w3.org/2000/svg">
<rect width="108" height="35" rx="17.5" fill="#978DFF"/>
<path d="M16 24.12H32V8.12H16V24.12ZM43.7344 11.5938V20.9531H37.0156V11.5938H43.7344ZM38.7344 19.5625H42.0469V12.9531H38.7344V19.5625ZM46.2656 24.4062V10.2656H48.0156V24.4062H46.2656ZM57.3906 12.2031C57.3906 14.3828 59.5234 16.5781 62.4844 17.0938L61.7031 18.5469C59.3359 18.0547 57.3984 16.6172 56.4766 14.7188C55.5469 16.6016 53.6094 18.0469 51.25 18.5469L50.4844 17.0938C53.3984 16.5625 55.5391 14.375 55.5469 12.2031V11.1562H57.3906V12.2031ZM50.0938 22.5938V21.1562H63V22.5938H50.0938ZM75.7656 10.2656V24.4062H74.0469V16.7812H71.3906V15.375H74.0469V10.2656H75.7656ZM64.5625 21.1562V11.4844H71.1719V12.9062H66.3125V15.4375H70.6094V16.8125H66.3125V19.7188C68.4609 19.7109 70.0703 19.6328 71.8906 19.3438L72.0625 20.75C70.0078 21.0625 68.1953 21.1406 65.6719 21.1562H64.5625ZM89.5156 10.2656V24.4062H87.7969V10.2656H89.5156ZM78.5156 12.9062V11.5H85.1719V16.7969H80.3125V19.6406C82.5391 19.625 84.4531 19.5078 86.6562 19.1406L86.8125 20.5625C84.4141 20.9766 82.3047 21.0703 79.7656 21.0625H78.5312V15.4219H83.4062V12.9062H78.5156Z" fill="white"/>
<rect x="112" width="80" height="35" rx="17.5" fill="#F7F8FA"/>
<path d="M128 24.12H144V8.12H128V24.12ZM156.219 11.8281V12.6875C156.211 13.8672 156.211 15.6719 155.812 18.1719L154.344 18.0625C154.703 15.8281 154.742 14.1953 154.75 13.0312H149.062V11.8281H156.219ZM148.281 20.1094C149.156 20.1016 150.133 20.0938 151.156 20.0703V15.8281H152.625V20.0234C154.109 19.9609 155.633 19.8672 157.031 19.6875L157.109 20.7969C154.195 21.2656 150.938 21.3281 148.453 21.3125L148.281 20.1094ZM157.828 24.3281V10.3281H159.328V16.1094H161.469V17.375H159.328V24.3281H157.828ZM170.609 11.75V12.9375H162.266V11.75H165.703V10.2656H167.188V11.75H170.609ZM163.031 16.1094C163.023 14.5781 164.414 13.5781 166.438 13.5625C168.453 13.5781 169.828 14.5781 169.828 16.1094C169.828 17.6484 168.453 18.6562 166.438 18.6562C164.414 18.6562 163.023 17.6484 163.031 16.1094ZM164 21V19.7969H173.25V24.3281H171.766V21H164ZM164.469 16.1094C164.453 16.9766 165.25 17.5 166.438 17.5C167.625 17.5 168.422 16.9766 168.438 16.1094C168.422 15.25 167.625 14.7109 166.438 14.7031C165.25 14.7109 164.453 15.25 164.469 16.1094ZM171.766 19.0781V10.3281H173.25V14.125H175.281V15.3594H173.25V19.0781H171.766Z" fill="#59595B"/>
<rect x="196" width="80" height="35" rx="17.5" fill="#F7F8FA"/>
<path d="M212 24.12H228V8.12H212V24.12ZM245.219 17.4062V18.6094H239.656V21.3281H238.188V18.6094H232.406V17.4062H245.219ZM234 24.0312V20H235.484V22.8281H243.797V24.0312H234ZM234.047 15.9531V10.9844H243.562V15.9531H234.047ZM235.5 14.7812H242.094V12.1562H235.5V14.7812ZM254.609 11.75V12.9375H246.266V11.75H249.703V10.2656H251.188V11.75H254.609ZM247.031 16.1094C247.023 14.5781 248.414 13.5781 250.438 13.5625C252.453 13.5781 253.828 14.5781 253.828 16.1094C253.828 17.6484 252.453 18.6562 250.438 18.6562C248.414 18.6562 247.023 17.6484 247.031 16.1094ZM248 21V19.7969H257.25V24.3281H255.766V21H248ZM248.469 16.1094C248.453 16.9766 249.25 17.5 250.438 17.5C251.625 17.5 252.422 16.9766 252.438 16.1094C252.422 15.25 251.625 14.7109 250.438 14.7031C249.25 14.7109 248.453 15.25 248.469 16.1094ZM255.766 19.0781V10.3281H257.25V14.125H259.281V15.3594H257.25V19.0781H255.766Z" fill="#59595B"/>
<rect x="280" width="80" height="35" rx="17.5" fill="#F7F8FA"/>
<path d="M296 24.12H312V8.12H296V24.12ZM328.469 10.3281V24.3281H327.047V10.3281H328.469ZM316.578 16.375C316.578 13.3438 317.766 11.4453 319.594 11.4531C320.789 11.4453 321.711 12.2422 322.211 13.625H324.25V10.5938H325.656V23.6406H324.25V19.125H322.219C321.711 20.5156 320.789 21.3203 319.594 21.3125C317.766 21.3203 316.578 19.4141 316.578 16.375ZM317.938 16.375C317.93 18.6016 318.555 19.9141 319.594 19.9062C320.625 19.9141 321.281 18.6016 321.281 16.375C321.281 14.1406 320.625 12.8359 319.594 12.8438C318.555 12.8359 317.93 14.1406 317.938 16.375ZM322.523 14.8281C322.602 15.3047 322.641 15.8203 322.641 16.375C322.641 16.9219 322.602 17.4375 322.523 17.9062H324.25V14.8281H322.523ZM337.391 10.8594C337.398 12.4688 339.617 13.8203 342.344 14.125L341.828 15.25C339.531 14.9688 337.523 14 336.625 12.5703C335.719 14 333.711 14.9688 331.438 15.25L330.922 14.125C333.656 13.8203 335.867 12.4688 335.875 10.8594V10.3906H337.391V10.8594ZM330.25 17.25V16.0625H343.016V17.25H337.359V18.5H341.406V21.8125H333.25V23.0469H341.797V24.1875H331.797V20.7344H339.938V19.6406H331.781V18.5H335.875V17.25H330.25Z" fill="#59595B"/>
<rect x="364" width="80" height="35" rx="17.5" fill="#F7F8FA"/>
<path d="M380 24.12H396V8.12H380V24.12ZM412.094 19.3125V24.3281H410.609V20.4844H402.609V19.3125H412.094ZM400.625 14.4844C400.617 12.5078 402.188 11.1016 404.297 11.1094C405.484 11.1016 406.508 11.5625 407.156 12.3281H410.609V10.3281H412.094V18.5781H410.609V16.6562H407.156C406.5 17.4219 405.484 17.8828 404.297 17.875C402.188 17.8828 400.617 16.4766 400.625 14.4844ZM402.047 14.4844C402.039 15.7656 402.984 16.6172 404.297 16.625C405.555 16.6172 406.516 15.7656 406.516 14.4844C406.516 13.2344 405.555 12.3672 404.297 12.3594C402.984 12.3672 402.039 13.2344 402.047 14.4844ZM407.805 15.4375H410.609V13.5469H407.812C407.891 13.8438 407.938 14.1562 407.938 14.4844C407.938 14.8203 407.891 15.1406 407.805 15.4375ZM419.109 13.8906C419.094 16.3672 420.539 18.9062 422.625 19.9219L421.703 21.1094C420.18 20.3125 419 18.75 418.383 16.8828C417.758 18.8672 416.531 20.5469 414.938 21.375L414.016 20.1719C416.164 19.1406 417.617 16.4531 417.625 13.8906V11.5H419.109V13.8906ZM423.672 24.3281V10.3281H425.156V15.9062H427.406V17.1719H425.156V24.3281H423.672Z" fill="#59595B"/>
<rect x="448" width="80" height="35" rx="17.5" fill="#F7F8FA"/>
<path d="M464 24.12H480V8.12H464V24.12ZM496.031 10.3438V18.2656H494.547V10.3438H496.031ZM484.484 16.7812C486.672 16.0469 487.992 14.1875 488 12.2344V10.875H489.516V12.2344C489.508 14.125 490.859 15.8281 492.984 16.5469L492.25 17.6875C490.625 17.1484 489.398 16.0469 488.766 14.6094C488.141 16.1484 486.898 17.3672 485.219 17.9531L484.484 16.7812ZM486.828 24.1562V19.0156H496.031V24.1562H486.828ZM488.297 22.9531H494.578V20.2031H488.297V22.9531ZM509.875 10.3281V24.3594H508.391V10.3281H509.875ZM499.031 12.7969V11.5938H505.594V16.7031H500.562V19.7656C502.836 19.7578 504.812 19.6484 507.156 19.2656L507.297 20.4844C504.82 20.8984 502.711 20.9922 500.234 21H499.047V15.5156H504.078V12.7969H499.031Z" fill="#59595B"/>
</svg>
