<svg width="245" height="250" viewBox="0 0 245 250" fill="none" xmlns="http://www.w3.org/2000/svg">
<circle cx="27.8295" cy="149.03" r="5.85855" fill="#FED4AA"/>
<circle cx="25.8972" cy="147.383" r="1.39771" fill="white"/>
<g filter="url(#filter0_d_394_15824)">
<rect x="54.2205" y="72.2517" width="131.939" height="125.858" rx="39.5817" fill="#BBB4FF"/>
<rect x="172.015" y="116.791" width="28.2891" height="46.571" rx="9.89543" fill="#BBB4FF"/>
<rect x="40.0764" y="116.791" width="28.2891" height="46.571" rx="9.89543" fill="#BBB4FF"/>
<rect x="73.0596" y="104.154" width="94.261" height="81.7646" rx="19.7909" fill="#978DFF"/>
<path d="M116.875 165.158C118.195 166.873 120.782 166.873 122.102 165.158L126.827 159.02C128.496 156.851 126.95 153.71 124.213 153.71H114.764C112.027 153.71 110.48 156.851 112.15 159.02L116.875 165.158Z" fill="white"/>
<rect x="88.679" y="144.576" width="20.3796" height="7.0553" rx="3.52765" transform="rotate(-15 88.679 144.576)" fill="white"/>
<rect width="20.3796" height="7.0553" rx="3.52765" transform="matrix(-0.965926 -0.258819 -0.258819 0.965926 151.701 144.576)" fill="white"/>
</g>
<rect x="105.677" y="64.4629" width="20.3796" height="7.0553" rx="3.52765" transform="rotate(-60 105.677 64.4629)" fill="white"/>
<g filter="url(#filter1_d_394_15824)">
<path d="M73.8084 179.881C71.9995 178.05 69.8517 176.598 67.4878 175.607C65.1239 174.616 62.5902 174.106 60.0313 174.106C57.4725 174.106 54.9388 174.616 52.5749 175.607C50.211 176.598 48.0632 178.05 46.2543 179.881L42.5001 183.68L38.7459 179.881C35.092 176.185 30.1363 174.108 24.9688 174.108C19.8014 174.108 14.8457 176.185 11.1918 179.881C7.53785 183.578 5.48511 188.592 5.48511 193.821C5.48511 199.049 7.53785 204.063 11.1918 207.76L14.9459 211.558L42.5001 239.436L70.0543 211.558L73.8084 207.76C75.6182 205.93 77.0538 203.757 78.0333 201.365C79.0128 198.973 79.517 196.41 79.517 193.821C79.517 191.232 79.0128 188.668 78.0333 186.276C77.0538 183.885 75.6182 181.712 73.8084 179.881Z" fill="#FCA7C8"/>
</g>
<circle cx="22.1158" cy="191.1" r="7.18344" fill="white"/>
<g filter="url(#filter2_d_394_15824)">
<path d="M115.808 6.43418C117.188 3.18865 121.788 3.18866 123.169 6.43418L146.988 62.4246C148.111 65.0629 146.175 67.9905 143.307 67.9905H95.6691C92.802 67.9905 90.866 65.0629 91.9884 62.4246L115.808 6.43418Z" fill="white"/>
<path d="M146.988 62.425C148.11 65.0631 146.174 67.9902 143.308 67.9905H95.6689C92.8021 67.9903 90.8663 65.0631 91.9883 62.425L95.8594 53.3264H143.117L146.988 62.425ZM135.683 35.8489H103.294L109.447 21.385H129.529L135.683 35.8489Z" fill="#4C5AF6"/>
</g>
<path opacity="0.7" d="M180.939 37.1755C183.317 35.8027 186.379 36.6898 187.415 39.2325C190.094 45.8076 191.571 53.0004 191.571 60.5381C191.571 67.3807 190.353 73.939 188.125 80.0091C187.82 80.8414 186.836 81.1804 186.068 80.7369C185.506 80.4122 185.229 79.755 185.37 79.1212C186.088 75.904 186.469 72.5594 186.469 69.126C186.469 60.1093 183.86 51.7019 179.355 44.618C177.758 42.1069 178.362 38.6634 180.939 37.1755Z" fill="#E12177"/>
<path opacity="0.7" d="M225.286 91.7978C226.273 90.0896 225.635 87.8896 223.809 87.1453C219.084 85.2203 213.916 84.1588 208.5 84.1587C203.584 84.1587 198.872 85.0352 194.51 86.6364C193.913 86.8557 193.67 87.562 193.988 88.1131C194.221 88.5166 194.693 88.7154 195.148 88.6139C197.459 88.098 199.863 87.8237 202.33 87.8237C208.809 87.8239 214.85 89.6989 219.94 92.9357C221.744 94.0829 224.217 93.6491 225.286 91.7978Z" fill="#BE89F1"/>
<path opacity="0.7" d="M173.185 59.1679C174.076 58.2763 175.54 58.3058 176.302 59.3105C178.272 61.909 179.783 64.9242 180.679 68.2683C181.492 71.3041 181.73 74.3585 181.463 77.3164C181.427 77.7215 181.031 77.9886 180.638 77.8834C180.35 77.8063 180.149 77.5479 180.136 77.25C180.073 75.7373 179.845 74.2079 179.437 72.6846C178.365 68.6843 176.207 65.2647 173.367 62.6575C172.36 61.7335 172.218 60.1342 173.185 59.1679Z" fill="#FF9714"/>
<path opacity="0.7" d="M203.669 41.4276C204.887 41.1013 206.14 41.8588 206.297 43.1098C206.704 46.3452 206.505 49.7117 205.609 53.0558C204.795 56.0916 203.475 58.8559 201.764 61.284C201.53 61.6165 201.054 61.65 200.766 61.3624C200.555 61.1517 200.51 60.8274 200.649 60.5631C201.35 59.2211 201.917 57.7827 202.325 56.2594C203.397 52.2591 203.238 48.2189 202.082 44.5407C201.672 43.237 202.349 41.7813 203.669 41.4276Z" fill="#0EACF3"/>
<path opacity="0.7" d="M244.325 62.0722C244.325 58.275 241.144 55.2205 237.383 55.7382C227.655 57.0767 218.02 60.2825 208.992 65.4944C200.795 70.2267 193.781 76.221 188.052 83.0883C187.267 84.0286 187.541 85.4396 188.602 86.0518C189.378 86.5003 190.356 86.3778 191.017 85.7709C194.375 82.6858 198.12 79.9173 202.234 77.5425C213.033 71.3077 224.907 68.6195 236.506 69.1163C240.618 69.2925 244.325 66.1878 244.325 62.0722Z" fill="#FFC700"/>
<circle cx="197.374" cy="194.205" r="8.28677" fill="#FFB69F"/>
<circle cx="193.984" cy="191.521" r="1.9762" fill="white"/>
<path d="M54.0334 214.281C57.0256 214.289 59.2053 215.766 59.2053 218C59.2053 220.094 57.3772 221.492 54.7678 221.703V224.453H60.4709V225.688H47.6584V224.453H53.2991V221.703C50.7053 221.492 48.8694 220.094 48.8772 218C48.8694 215.766 51.0569 214.289 54.0334 214.281ZM50.3147 218C50.3147 219.57 51.8772 220.547 54.0334 220.562C56.2053 220.547 57.76 219.57 57.7678 218C57.76 216.484 56.2053 215.484 54.0334 215.5C51.8772 215.484 50.3147 216.484 50.3147 218ZM72.7834 216.625V217.828H63.1741V213.641H64.6272V216.625H72.7834ZM61.4709 220.25V219.062H74.2834V220.25H61.4709ZM63.0334 222.531V221.375H72.6741V224.797H64.5491V226.094H73.1584V227.266H63.0647V223.703H71.2053V222.531H63.0334ZM79.8772 214.438C82.0881 214.43 83.6819 215.797 83.6897 217.766C83.6819 219.734 82.0881 221.102 79.8772 221.109C77.6741 221.102 76.0569 219.734 76.0647 217.766C76.0569 215.797 77.6741 214.43 79.8772 214.438ZM75.3928 223.219C77.9397 223.219 81.4709 223.195 84.5334 222.75L84.6428 223.828C81.4788 224.438 78.0803 224.453 75.5803 224.453L75.3928 223.219ZM77.5334 217.766C77.5178 219.008 78.5178 219.812 79.8772 219.812C81.2366 219.812 82.2366 219.008 82.2366 217.766C82.2366 216.539 81.2366 215.719 79.8772 215.719C78.5178 215.719 77.5178 216.539 77.5334 217.766ZM85.4084 227.469V213.438H86.8928V227.469H85.4084ZM100.393 214.781V223.984H93.8303V214.781H100.393ZM95.2991 222.781H98.9553V215.953H95.2991V222.781ZM103.158 227.469V213.438H104.643V227.469H103.158ZM113.987 215.422C113.987 217.703 116.416 219.859 119.112 220.344L118.424 221.578C116.182 221.094 114.127 219.625 113.221 217.656C112.299 219.617 110.244 221.078 108.002 221.578L107.346 220.344C110.002 219.844 112.416 217.703 112.424 215.422V214.359H113.987V215.422ZM106.877 225.594V224.359H119.69V225.594H106.877ZM126.44 215.094V216.281H122.627V218.859H125.815V220.016H122.627V222.953C124.455 222.93 125.651 222.859 127.096 222.594L127.221 223.797C125.612 224.125 124.283 224.148 122.112 224.156H121.205V215.094H126.44ZM126.549 219.891V218.688H128.44V213.734H129.846V226.734H128.44V219.891H126.549ZM131.299 227.438V213.438H132.737V227.438H131.299ZM146.158 213.438V227.469H144.674V213.438H146.158ZM135.315 215.906V214.703H141.877V219.812H136.846V222.875C139.119 222.867 141.096 222.758 143.44 222.375L143.58 223.594C141.104 224.008 138.994 224.102 136.518 224.109H135.33V218.625H140.362V215.906H135.315ZM160.33 214.422V215.125C160.323 216.172 160.323 217.844 159.885 220.242C160.471 220.203 161.049 220.156 161.612 220.094L161.705 221.203C160.323 221.391 158.893 221.508 157.487 221.586V226.625H156.002V221.648C154.729 221.688 153.502 221.703 152.377 221.703L152.174 220.484C154.057 220.469 156.229 220.445 158.393 220.336C158.549 219.57 158.651 218.875 158.729 218.25L153.315 218.719L153.096 217.469L158.823 217.172C158.869 216.578 158.877 216.07 158.877 215.641H153.393V214.422H160.33ZM162.549 227.438V213.438H164.049V227.438H162.549ZM178.908 224.406V225.625H166.096V224.406H178.908ZM166.69 220.906C169.291 220.484 171.705 218.547 171.705 216.406V215.969H167.158V214.766H177.799V215.969H173.252V216.406C173.252 218.547 175.682 220.438 178.346 220.859L177.752 222.031C175.487 221.609 173.401 220.297 172.487 218.453C171.588 220.312 169.518 221.664 167.299 222.094L166.69 220.906ZM191.252 217.531V218.719H181.612V213.938H183.08V217.531H191.252ZM179.908 221.672V220.484H192.721V221.672H179.908ZM181.502 227.109V223H182.987V225.891H191.346V227.109H181.502ZM79.7756 232.438V239.953H78.2913V232.438H79.7756ZM68.4475 236.328C68.4553 234.406 70.0334 233.07 72.1819 233.078C74.3225 233.07 75.9006 234.406 75.9006 236.328C75.9006 238.242 74.3225 239.578 72.1819 239.562C70.0334 239.578 68.4553 238.242 68.4475 236.328ZM69.9006 236.328C69.8928 237.539 70.8538 238.344 72.1819 238.344C73.4944 238.344 74.4475 237.539 74.4475 236.328C74.4475 235.133 73.4944 234.32 72.1819 234.328C70.8538 234.32 69.8928 235.133 69.9006 236.328ZM70.6194 246.266V240.625H72.0725V242.203H78.3069V240.625H79.7756V246.266H70.6194ZM72.0725 245.047H78.3069V243.375H72.0725V245.047ZM88.6663 233.281V237.359H84.0413V239.297C86.4788 239.297 87.8069 239.242 89.385 238.953L89.5256 240.156C87.8147 240.445 86.3772 240.492 83.5881 240.5H82.5725V236.234H87.1819V234.469H82.5569V233.281H88.6663ZM84.1663 242.969V241.766H93.6663V246.453H92.1819V242.969H84.1663ZM89.5569 238.594V237.406H92.1819V235.672H89.5569V234.484H92.1819V232.453H93.6663V241.062H92.1819V238.594H89.5569ZM103.979 233.062C106.026 233.062 107.463 234.188 107.479 235.859C107.463 237.281 106.385 238.32 104.76 238.578V239.828C105.994 239.758 107.244 239.641 108.401 239.469L108.51 240.562C105.573 241.094 102.276 241.148 99.8694 241.141L99.7131 239.938C100.76 239.945 101.987 239.938 103.276 239.891V238.594C101.604 238.359 100.487 237.305 100.494 235.859C100.487 234.188 101.924 233.062 103.979 233.062ZM101.698 246.141V242.219H103.182V244.922H111.244V246.141H101.698ZM101.885 235.859C101.869 236.852 102.744 237.5 103.979 237.5C105.221 237.5 106.073 236.852 106.073 235.859C106.073 234.844 105.221 234.203 103.979 234.203C102.744 234.203 101.869 234.844 101.885 235.859ZM109.26 243.156V232.453H110.744V237.078H112.744V238.328H110.744V243.156H109.26ZM126.369 243.516V244.766H113.557V243.516H117.057V241.047H115.119V236.594H123.338V234.641H115.088V233.422H124.807V237.797H116.588V239.828H125.135V241.047H123.01V243.516H126.369ZM118.494 243.516H121.557V241.047H118.494V243.516ZM139.323 232.453V241.109H137.916V237.422H136.323V240.906H134.932V232.656H136.323V236.219H137.916V232.453H139.323ZM127.307 235.141V233.953H130.135V232.5H131.604V233.953H134.385V235.141H127.307ZM127.854 238.188C127.854 236.711 129.104 235.766 130.854 235.766C132.643 235.766 133.885 236.711 133.885 238.188C133.885 239.617 132.643 240.594 130.854 240.594C129.104 240.594 127.854 239.617 127.854 238.188ZM128.244 245.141C130.018 244.578 131.018 243.203 131.026 241.938V241.516H132.479V241.938C132.471 243.078 133.049 244.266 134.299 244.969C135.565 244.203 136.182 242.938 136.182 241.938V241.516H137.651V241.938C137.643 243.281 138.619 244.625 140.432 245.141L139.729 246.266C138.338 245.812 137.393 244.906 136.901 243.797C136.471 244.883 135.635 245.891 134.338 246.391C132.994 245.906 132.151 244.961 131.721 243.859C131.213 244.914 130.268 245.805 128.948 246.266L128.244 245.141ZM129.182 238.188C129.182 238.984 129.862 239.492 130.854 239.5C131.862 239.492 132.549 238.984 132.541 238.188C132.549 237.352 131.862 236.852 130.854 236.859C129.862 236.852 129.182 237.352 129.182 238.188ZM145.01 233.484C146.916 233.492 148.299 235.102 148.526 237.688H151.416V232.438H152.885V246.469H151.416V238.891H148.541C148.377 241.625 146.963 243.32 145.01 243.312C142.924 243.32 141.448 241.414 141.463 238.391C141.448 235.398 142.924 233.492 145.01 233.484ZM142.869 238.391C142.877 240.617 143.744 241.984 145.01 241.984C146.276 241.984 147.143 240.617 147.151 238.391C147.143 236.195 146.276 234.82 145.01 234.812C143.744 234.82 142.877 236.195 142.869 238.391ZM167.854 243.453V244.688H155.041V243.453H158.104V239.797C156.955 239.164 156.252 238.164 156.26 236.906C156.252 234.703 158.416 233.258 161.416 233.25C164.424 233.258 166.588 234.703 166.588 236.906C166.588 238.141 165.916 239.133 164.791 239.766V243.453H167.854ZM157.698 236.906C157.698 238.406 159.221 239.383 161.416 239.391C163.596 239.383 165.143 238.406 165.151 236.906C165.143 235.398 163.596 234.438 161.416 234.438C159.221 234.438 157.698 235.398 157.698 236.906ZM159.573 243.453H163.291V240.344C162.721 240.477 162.088 240.547 161.416 240.547C160.76 240.547 160.135 240.477 159.573 240.344V243.453ZM171.448 233.797L171.307 241.844H169.76L169.619 233.797H171.448ZM169.432 244.109C169.424 243.5 169.932 243 170.541 243C171.143 243 171.643 243.5 171.651 244.109C171.643 244.719 171.143 245.211 170.541 245.219C169.932 245.211 169.424 244.719 169.432 244.109Z" fill="#4B4B4B"/>
<defs>
<filter id="filter0_d_394_15824" x="36.0764" y="68.2517" width="168.228" height="133.858" filterUnits="userSpaceOnUse" color-interpolation-filters="sRGB">
<feFlood flood-opacity="0" result="BackgroundImageFix"/>
<feColorMatrix in="SourceAlpha" type="matrix" values="0 0 0 0 0 0 0 0 0 0 0 0 0 0 0 0 0 0 127 0" result="hardAlpha"/>
<feOffset/>
<feGaussianBlur stdDeviation="2"/>
<feComposite in2="hardAlpha" operator="out"/>
<feColorMatrix type="matrix" values="0 0 0 0 0 0 0 0 0 0 0 0 0 0 0 0 0 0 0.1 0"/>
<feBlend mode="normal" in2="BackgroundImageFix" result="effect1_dropShadow_394_15824"/>
<feBlend mode="normal" in="SourceGraphic" in2="effect1_dropShadow_394_15824" result="shape"/>
</filter>
<filter id="filter1_d_394_15824" x="1.48511" y="170.106" width="82.032" height="73.3308" filterUnits="userSpaceOnUse" color-interpolation-filters="sRGB">
<feFlood flood-opacity="0" result="BackgroundImageFix"/>
<feColorMatrix in="SourceAlpha" type="matrix" values="0 0 0 0 0 0 0 0 0 0 0 0 0 0 0 0 0 0 127 0" result="hardAlpha"/>
<feOffset/>
<feGaussianBlur stdDeviation="2"/>
<feComposite in2="hardAlpha" operator="out"/>
<feColorMatrix type="matrix" values="0 0 0 0 0 0 0 0 0 0 0 0 0 0 0 0 0 0 0.1 0"/>
<feBlend mode="normal" in2="BackgroundImageFix" result="effect1_dropShadow_394_15824"/>
<feBlend mode="normal" in="SourceGraphic" in2="effect1_dropShadow_394_15824" result="shape"/>
</filter>
<filter id="filter2_d_394_15824" x="87.6648" y="0" width="63.647" height="71.9905" filterUnits="userSpaceOnUse" color-interpolation-filters="sRGB">
<feFlood flood-opacity="0" result="BackgroundImageFix"/>
<feColorMatrix in="SourceAlpha" type="matrix" values="0 0 0 0 0 0 0 0 0 0 0 0 0 0 0 0 0 0 127 0" result="hardAlpha"/>
<feOffset/>
<feGaussianBlur stdDeviation="2"/>
<feComposite in2="hardAlpha" operator="out"/>
<feColorMatrix type="matrix" values="0 0 0 0 0 0 0 0 0 0 0 0 0 0 0 0 0 0 0.1 0"/>
<feBlend mode="normal" in2="BackgroundImageFix" result="effect1_dropShadow_394_15824"/>
<feBlend mode="normal" in="SourceGraphic" in2="effect1_dropShadow_394_15824" result="shape"/>
</filter>
</defs>
</svg>
