<svg width="87" height="88" viewBox="0 0 87 88" fill="none" xmlns="http://www.w3.org/2000/svg">
<g clip-path="url(#clip0_499_27519)">
<ellipse cx="9.81033" cy="52.905" rx="2.06522" ry="2.04926" fill="#FED4AA"/>
<ellipse cx="9.12918" cy="52.3289" rx="0.49271" ry="0.488901" fill="white"/>
<g filter="url(#filter0_d_499_27519)">
<rect x="19.1135" y="26.0486" width="46.5102" height="44.0236" rx="13.9531" fill="#BBB4FF"/>
<rect x="60.6375" y="41.6281" width="9.97228" height="16.29" rx="3.48827" fill="#BBB4FF"/>
<rect x="14.1274" y="41.6281" width="9.97228" height="16.29" rx="3.48827" fill="#BBB4FF"/>
<rect x="25.7544" y="37.2075" width="33.2283" height="28.6004" rx="6.97654" fill="#978DFF"/>
<path d="M41.2025 58.5494C41.668 59.1495 42.5744 59.1495 43.0399 58.5494L44.6941 56.4172C45.2868 55.6532 44.7424 54.5417 43.7754 54.5417H40.467C39.5001 54.5417 38.9556 55.6532 39.5483 56.4172L41.2025 58.5494Z" fill="white"/>
<rect width="7.18039" height="2.46916" rx="1.23458" transform="matrix(0.966424 -0.256952 0.260698 0.96542 31.2605 51.3468)" fill="white"/>
<rect width="7.18039" height="2.46916" rx="1.23458" transform="matrix(-0.966424 -0.256952 -0.260698 0.96542 53.4768 51.3468)" fill="white"/>
</g>
<g filter="url(#filter1_d_499_27519)">
<path d="M26.0185 63.6963C25.3808 63.0558 24.6237 62.5477 23.7904 62.2011C22.9571 61.8544 22.0639 61.676 21.1619 61.676C20.2599 61.676 19.3667 61.8544 18.5334 62.2011C17.7001 62.5477 16.9429 63.0558 16.3053 63.6963L14.9819 65.0249L13.6585 63.6963C12.3704 62.4032 10.6235 61.6767 8.80187 61.6767C6.98029 61.6767 5.23332 62.4032 3.94527 63.6963C2.65721 64.9894 1.93359 66.7433 1.93359 68.5721C1.93359 70.4008 2.65721 72.1547 3.94527 73.4478L5.26866 74.7765L14.9819 84.528L24.6951 74.7765L26.0185 73.4478C26.6564 72.8076 27.1625 72.0475 27.5078 71.2109C27.8531 70.3743 28.0308 69.4776 28.0308 68.5721C28.0308 67.6665 27.8531 66.7698 27.5078 65.9332C27.1625 65.0966 26.6564 64.3365 26.0185 63.6963Z" fill="#FCA7C8"/>
</g>
<ellipse cx="7.79617" cy="67.6206" rx="2.53226" ry="2.51269" fill="white"/>
<g filter="url(#filter2_d_499_27519)">
<path d="M40.8252 3.02283C41.3137 1.88358 42.9287 1.88358 43.4172 3.02282L51.8072 22.5925C52.2062 23.5229 51.5236 24.5582 50.5113 24.5582H33.7311C32.7188 24.5582 32.0362 23.5229 32.4352 22.5925L40.8252 3.02283Z" fill="white"/>
<path d="M51.8076 22.592C52.2064 23.5223 51.5237 24.5574 50.5117 24.5579H33.7314C32.7191 24.5579 32.0366 23.5225 32.4355 22.592L33.792 19.429H50.4512L51.8076 22.592ZM47.8301 13.3157H36.4121L38.5811 8.2561H45.6611L47.8301 13.3157Z" fill="#4C5AF6"/>
</g>
<path opacity="0.7" d="M63.7931 13.7723C64.6266 13.2949 65.6971 13.605 66.0622 14.4935C67.008 16.7948 67.5297 19.3126 67.5298 21.951C67.5297 24.3443 67.0998 26.6382 66.3143 28.7613C66.2064 29.0529 65.8618 29.1717 65.5921 29.0171C65.3929 28.9029 65.2947 28.6705 65.345 28.4465C65.5976 27.3224 65.7319 26.1535 65.7319 24.954C65.7317 21.8071 64.8155 18.8722 63.2338 16.3978C62.6677 15.5123 62.8812 14.2946 63.7931 13.7723Z" fill="#E12177"/>
<path opacity="0.7" d="M79.4112 32.8938C79.7606 32.2932 79.5359 31.5175 78.8917 31.2572C77.2272 30.5846 75.4065 30.2134 73.4985 30.2134C71.7658 30.2134 70.1049 30.5205 68.5677 31.0805C68.3572 31.1572 68.2714 31.4059 68.3839 31.5996C68.4657 31.7405 68.6306 31.81 68.7897 31.7747C69.6053 31.5935 70.4532 31.4956 71.3237 31.4956C73.6124 31.4957 75.7464 32.1545 77.543 33.2912C78.1736 33.6902 79.036 33.5388 79.4112 32.8938Z" fill="#BE89F1"/>
<path opacity="0.7" d="M61.0352 21.4946C61.3463 21.186 61.8561 21.1981 62.1223 21.5477C62.8148 22.4575 63.3483 23.5111 63.6662 24.6789C63.9529 25.7331 64.0396 26.7937 63.953 27.8206C63.9408 27.9644 63.8004 28.0595 63.6606 28.022C63.5587 27.9947 63.4873 27.9036 63.4822 27.7985C63.4572 27.2758 63.3776 26.7471 63.2345 26.2206C62.8543 24.8231 62.0946 23.6255 61.0974 22.7099C60.7459 22.3871 60.6974 21.8296 61.0352 21.4946Z" fill="#FF9714"/>
<path opacity="0.7" d="M71.7926 15.2606C72.2192 15.1463 72.6568 15.4114 72.7095 15.8485C72.8455 16.9742 72.7719 18.1457 72.4553 19.3098C72.167 20.3693 71.7002 21.3342 71.0995 22.1838C71.018 22.2991 70.8529 22.3113 70.753 22.2122C70.6794 22.1393 70.6637 22.0265 70.712 21.9345C70.9579 21.4661 71.1577 20.9646 71.302 20.434C71.6819 19.037 71.6329 17.6276 71.2348 16.3444C71.0939 15.8904 71.3319 15.384 71.7926 15.2606Z" fill="#0EACF3"/>
<path opacity="0.7" d="M86.156 22.4726C86.1534 21.1408 85.0319 20.0666 83.7046 20.2416C80.2529 20.6969 76.8335 21.8145 73.6333 23.6455C70.7354 25.3037 68.2592 27.4093 66.2402 29.8229C65.9645 30.1524 66.0623 30.647 66.4367 30.8622C66.7113 31.02 67.0564 30.9773 67.289 30.7644C68.4759 29.6778 69.8006 28.7022 71.258 27.8682C75.0769 25.6831 79.2806 24.7517 83.3865 24.945C84.844 25.0136 86.1589 23.923 86.156 22.4726Z" fill="#FFC700"/>
<ellipse cx="69.5772" cy="68.7065" rx="2.9212" ry="2.89862" fill="#FFB69F"/>
</g>
<defs>
<filter id="filter0_d_499_27519" x="12.7174" y="24.6385" width="59.3023" height="46.8438" filterUnits="userSpaceOnUse" color-interpolation-filters="sRGB">
<feFlood flood-opacity="0" result="BackgroundImageFix"/>
<feColorMatrix in="SourceAlpha" type="matrix" values="0 0 0 0 0 0 0 0 0 0 0 0 0 0 0 0 0 0 127 0" result="hardAlpha"/>
<feOffset/>
<feGaussianBlur stdDeviation="0.705027"/>
<feComposite in2="hardAlpha" operator="out"/>
<feColorMatrix type="matrix" values="0 0 0 0 0 0 0 0 0 0 0 0 0 0 0 0 0 0 0.1 0"/>
<feBlend mode="normal" in2="BackgroundImageFix" result="effect1_dropShadow_499_27519"/>
<feBlend mode="normal" in="SourceGraphic" in2="effect1_dropShadow_499_27519" result="shape"/>
</filter>
<filter id="filter1_d_499_27519" x="0.52354" y="60.266" width="28.9173" height="25.6722" filterUnits="userSpaceOnUse" color-interpolation-filters="sRGB">
<feFlood flood-opacity="0" result="BackgroundImageFix"/>
<feColorMatrix in="SourceAlpha" type="matrix" values="0 0 0 0 0 0 0 0 0 0 0 0 0 0 0 0 0 0 127 0" result="hardAlpha"/>
<feOffset/>
<feGaussianBlur stdDeviation="0.705027"/>
<feComposite in2="hardAlpha" operator="out"/>
<feColorMatrix type="matrix" values="0 0 0 0 0 0 0 0 0 0 0 0 0 0 0 0 0 0 0.1 0"/>
<feBlend mode="normal" in2="BackgroundImageFix" result="effect1_dropShadow_499_27519"/>
<feBlend mode="normal" in="SourceGraphic" in2="effect1_dropShadow_499_27519" result="shape"/>
</filter>
<filter id="filter2_d_499_27519" x="30.9095" y="0.758282" width="22.4236" height="25.2099" filterUnits="userSpaceOnUse" color-interpolation-filters="sRGB">
<feFlood flood-opacity="0" result="BackgroundImageFix"/>
<feColorMatrix in="SourceAlpha" type="matrix" values="0 0 0 0 0 0 0 0 0 0 0 0 0 0 0 0 0 0 127 0" result="hardAlpha"/>
<feOffset/>
<feGaussianBlur stdDeviation="0.705027"/>
<feComposite in2="hardAlpha" operator="out"/>
<feColorMatrix type="matrix" values="0 0 0 0 0 0 0 0 0 0 0 0 0 0 0 0 0 0 0.1 0"/>
<feBlend mode="normal" in2="BackgroundImageFix" result="effect1_dropShadow_499_27519"/>
<feBlend mode="normal" in="SourceGraphic" in2="effect1_dropShadow_499_27519" result="shape"/>
</filter>
<clipPath id="clip0_499_27519">
<rect width="87" height="88" fill="white"/>
</clipPath>
</defs>
</svg>
