<svg width="24" height="29" viewBox="0 0 24 29" fill="none" xmlns="http://www.w3.org/2000/svg">
<path fill-rule="evenodd" clip-rule="evenodd" d="M10.4589 6.63293C10.5899 6.63293 10.7156 6.68499 10.8083 6.77764C10.9009 6.8703 10.953 6.99597 10.953 7.127V7.32364C10.953 7.50843 11.1027 7.65813 11.2875 7.65813H12.5948C12.6835 7.65813 12.7686 7.62289 12.8313 7.56016C12.894 7.49743 12.9293 7.41235 12.9293 7.32364V7.16406C12.9293 7.03302 12.9813 6.90736 13.074 6.8147C13.1666 6.72204 13.2923 6.66999 13.4233 6.66999C13.5544 6.66999 13.68 6.72204 13.7727 6.8147C13.8653 6.90736 13.9174 7.03302 13.9174 7.16406V7.32364C13.9175 7.49735 13.8833 7.66937 13.8169 7.82987C13.7504 7.99036 13.653 8.13619 13.5302 8.25902C13.4073 8.38185 13.2615 8.47928 13.101 8.54572C12.9405 8.61217 12.7685 8.64633 12.5948 8.64627H11.2875C11.1138 8.64633 10.9417 8.61217 10.7812 8.54572C10.6207 8.47928 10.4749 8.38185 10.3521 8.25902C10.2293 8.13619 10.1318 7.99036 10.0654 7.82987C9.99895 7.66937 9.96478 7.49735 9.96484 7.32364V7.127C9.96484 6.99597 10.0169 6.8703 10.1096 6.77764C10.2022 6.68499 10.3279 6.63293 10.4589 6.63293Z" fill="#978DFF"/>
<path d="M13.0417 7.33504C13.1094 7.54255 13.3332 7.65816 13.5333 7.57022C14.3651 7.20411 15.0454 6.56253 15.4595 5.75354C15.8736 4.94454 15.9963 4.01756 15.8068 3.1287C15.6174 2.23984 15.1274 1.44341 14.4195 0.873546C13.7115 0.303684 12.8288 -0.00479667 11.92 5.63992e-05C11.0112 0.00490947 10.1318 0.3228 9.42996 0.900191C8.72812 1.47758 8.2467 2.27919 8.06677 3.17003C7.88684 4.06086 8.0194 4.98649 8.44212 5.79101C8.86484 6.59554 9.5519 7.22982 10.3876 7.58702C10.5882 7.67299 10.811 7.5554 10.8767 7.3469L10.9197 7.20955C10.9849 7.00154 10.8673 6.78168 10.6697 6.68979C10.0475 6.40083 9.54235 5.90854 9.23741 5.29405C8.93246 4.67955 8.84594 3.97951 8.9921 3.30927C9.13827 2.63902 9.50839 2.03856 10.0415 1.60682C10.5746 1.17508 11.2388 0.937814 11.9248 0.934125C12.6108 0.930435 13.2776 1.16054 13.8153 1.58652C14.353 2.0125 14.7296 2.60895 14.8829 3.27758C15.0363 3.94622 14.9573 4.64715 14.659 5.26489C14.3607 5.88263 13.8608 6.38032 13.2418 6.67595C13.0447 6.76983 12.9296 6.99067 12.9973 7.19868L13.0417 7.33504Z" fill="#978DFF"/>
<rect x="2.11865" y="9.30139" width="19.7628" height="18.8519" rx="5.92883" fill="#BBB4FF"/>
<rect x="19.7627" y="15.9728" width="4.23734" height="6.97574" rx="1.48221" fill="#BBB4FF"/>
<rect y="15.9728" width="4.23734" height="6.97574" rx="1.48221" fill="#BBB4FF"/>
<rect x="4.94043" y="14.0798" width="14.1191" height="12.2473" rx="2.96442" fill="#978DFF"/>
<ellipse cx="9.31602" cy="19.4607" rx="0.957621" ry="1.30089" fill="white"/>
<ellipse cx="14.6842" cy="19.4607" rx="0.957621" ry="1.30089" fill="white"/>
<path d="M11.5496 23.2174C11.7474 23.4743 12.1348 23.4743 12.3326 23.2174L13.0403 22.2981C13.2904 21.9732 13.0588 21.5026 12.6488 21.5026H11.2335C10.8235 21.5026 10.5919 21.9732 10.842 22.2981L11.5496 23.2174Z" fill="white"/>
</svg>
