<svg width="20" height="20" viewBox="0 0 20 20" fill="none" xmlns="http://www.w3.org/2000/svg">
<path d="M1.42414 13.5674C1.1237 12.9191 0.898368 12.255 0.748145 11.575C0.597923 10.8951 0.522812 10.1993 0.522812 9.48771C0.522812 8.17524 0.771865 6.94184 1.26997 5.7875C1.76807 4.63317 2.44407 3.62905 3.29797 2.77516C4.15186 1.92126 5.15598 1.24526 6.31032 0.747157C7.46465 0.249052 8.69806 0 10.0105 0C11.323 0 12.5564 0.249052 13.7107 0.747157C14.8651 1.24526 15.8692 1.92126 16.7231 2.77516C17.577 3.62905 18.253 4.63317 18.7511 5.7875C19.2492 6.94184 19.4982 8.17524 19.4982 9.48771C19.4982 10.8002 19.2492 12.0336 18.7511 13.1879C18.253 14.3423 17.577 15.3464 16.7231 16.2003C15.8692 17.0542 14.8651 17.7302 13.7107 18.2283C12.5564 18.7264 11.323 18.9754 10.0105 18.9754C9.29894 18.9754 8.60318 18.9003 7.92323 18.7501C7.24327 18.5999 6.57913 18.3745 5.93081 18.0741L1.23439 19.4498C0.870695 19.5605 0.554438 19.4814 0.28562 19.2126C0.0168012 18.9438 -0.0622631 18.6275 0.0484269 18.2638L1.42414 13.5674Z" fill="#978DFF"/>
</svg>
