<svg width="20" height="20" viewBox="0 0 20 20" fill="none" xmlns="http://www.w3.org/2000/svg">
<path d="M2.92474 19.4982C2.38853 19.4982 1.92951 19.3073 1.54767 18.9255C1.16583 18.5436 0.974912 18.0846 0.974912 17.5484V6.55628C0.682438 6.37755 0.446835 6.14601 0.268101 5.86166C0.0893669 5.57731 0 5.24827 0 4.87456V1.94982C0 1.41362 0.19092 0.954601 0.572761 0.572761C0.954601 0.19092 1.41362 0 1.94982 0H17.5484C18.0846 0 18.5436 0.19092 18.9255 0.572761C19.3073 0.954601 19.4982 1.41362 19.4982 1.94982V4.87456C19.4982 5.24827 19.4089 5.57731 19.2301 5.86166C19.0514 6.14601 18.8158 6.37755 18.5233 6.55628V17.5484C18.5233 18.0846 18.3324 18.5436 17.9506 18.9255C17.5687 19.3073 17.1097 19.4982 16.5735 19.4982H2.92474ZM1.94982 4.87456H17.5484V1.94982H1.94982V4.87456ZM7.79929 11.6989H11.6989C11.9752 11.6989 12.2067 11.6055 12.3936 11.4187C12.5804 11.2318 12.6739 11.0003 12.6739 10.724C12.6739 10.4478 12.5804 10.2163 12.3936 10.0294C12.2067 9.84255 11.9752 9.74912 11.6989 9.74912H7.79929C7.52307 9.74912 7.29153 9.84255 7.10467 10.0294C6.91781 10.2163 6.82438 10.4478 6.82438 10.724C6.82438 11.0003 6.91781 11.2318 7.10467 11.4187C7.29153 11.6055 7.52307 11.6989 7.79929 11.6989Z" fill="#978DFF"/>
</svg>
