<svg width="18" height="20" viewBox="0 0 18 20" fill="none" xmlns="http://www.w3.org/2000/svg">
<path d="M0 17.2699V7.2422C0 6.88938 0.0789214 6.55512 0.236764 6.23943C0.394607 5.92375 0.612802 5.66377 0.891348 5.45951L7.57646 0.445674C7.96642 0.148558 8.41209 0 8.91348 0C9.41486 0 9.86053 0.148558 10.2505 0.445674L16.9356 5.45951C17.2142 5.66377 17.4323 5.92375 17.5902 6.23943C17.748 6.55512 17.827 6.88938 17.827 7.2422V17.2699C17.827 17.8827 17.6088 18.4073 17.1724 18.8436C16.736 19.28 16.2114 19.4982 15.5986 19.4982H12.256C11.9403 19.4982 11.6757 19.3915 11.4622 19.1779C11.2486 18.9644 11.1418 18.6997 11.1418 18.384V12.8131C11.1418 12.4974 11.0351 12.2328 10.8215 12.0193C10.608 11.8057 10.3433 11.6989 10.0277 11.6989H7.79929C7.48361 11.6989 7.21899 11.8057 7.00544 12.0193C6.79188 12.2328 6.68511 12.4974 6.68511 12.8131V18.384C6.68511 18.6997 6.57833 18.9644 6.36478 19.1779C6.15123 19.3915 5.88661 19.4982 5.57092 19.4982H2.22837C1.61557 19.4982 1.09097 19.28 0.654584 18.8436C0.218194 18.4073 0 17.8827 0 17.2699Z" fill="#978DFF"/>
</svg>
