<svg width="20" height="20" viewBox="0 0 20 20" fill="none" xmlns="http://www.w3.org/2000/svg">
<path fill-rule="evenodd" clip-rule="evenodd" d="M3.21178 13.0014C3.22815 12.8964 3.27754 12.7994 3.35278 12.7244L13.4308 2.64639C13.5245 2.55266 13.6517 2.5 13.7843 2.5C13.9169 2.5 14.044 2.55266 14.1378 2.64639L18.0278 6.53639C18.1212 6.63012 18.1737 6.75706 18.1737 6.88939C18.1737 7.02173 18.1212 7.14867 18.0278 7.24239L7.94778 17.3214C7.87263 17.3963 7.77562 17.4453 7.67077 17.4614L3.07578 18.1674C2.99819 18.1793 2.9189 18.1728 2.84432 18.1483C2.76973 18.1239 2.70195 18.0822 2.64645 18.0267C2.59095 17.9712 2.54929 17.9034 2.52486 17.8289C2.50042 17.7543 2.49388 17.675 2.50578 17.5974L3.21178 13.0014ZM4.17578 13.3154L3.59878 17.0754L7.35778 16.4974L16.9668 6.88939L13.7838 3.70739L4.17578 13.3154Z" fill="black"/>
<path fill-rule="evenodd" clip-rule="evenodd" d="M16.037 7.988L12.5 4.458L13.207 3.75L16.743 7.28L16.037 7.988Z" fill="black"/>
</svg>
