<svg width="17" height="17" viewBox="0 0 17 17" fill="none" xmlns="http://www.w3.org/2000/svg">
<path d="M8.25168 15.75C9.88746 15.7496 11.4783 15.2145 12.7817 14.2261C14.0851 13.2378 15.0296 11.8503 15.4714 10.2753C15.9131 8.70034 15.8278 7.0241 15.2285 5.50208C14.6291 3.98005 13.5486 2.6957 12.1516 1.84474C10.7546 0.993786 9.11769 0.622893 7.49033 0.788582C5.86296 0.954272 4.33439 1.64746 3.13754 2.7625C1.9407 3.87755 1.14122 5.35331 0.86093 6.9649C0.580643 8.57648 0.834921 10.2355 1.58502 11.6892L0.751683 15.75L4.81252 14.9167C5.84252 15.4492 7.01252 15.75 8.25168 15.75Z" stroke="#B3B3B3" stroke-width="1.5" stroke-linecap="round" stroke-linejoin="round"/>
<path d="M4.50171 8.25H4.51004V8.25833H4.50171V8.25ZM8.25171 8.25H8.26004V8.25833H8.25171V8.25ZM12.0017 8.25H12.01V8.25833H12.0017V8.25Z" stroke="#B3B3B3" stroke-width="2.25" stroke-linejoin="round"/>
</svg>
