<svg width="20" height="20" viewBox="0 0 20 20" fill="none" xmlns="http://www.w3.org/2000/svg">
<path d="M17.9688 13.7499V15.6249C17.9688 15.915 17.8535 16.1932 17.6484 16.3983C17.4433 16.6034 17.1651 16.7187 16.875 16.7187H3.125C2.83492 16.7187 2.55672 16.6034 2.3516 16.3983C2.14648 16.1932 2.03125 15.915 2.03125 15.6249V13.7499C2.03125 13.4598 2.14648 13.1816 2.3516 12.9765C2.55672 12.7714 2.83492 12.6562 3.125 12.6562H3.28125V9.99991C3.28125 8.21799 3.98912 6.50905 5.24913 5.24904C6.50914 3.98903 8.21808 3.28116 10 3.28116H10.0508C13.7273 3.30851 16.7188 6.35773 16.7188 10.078V12.6562H16.875C17.1651 12.6562 17.4433 12.7714 17.6484 12.9765C17.8535 13.1816 17.9688 13.4598 17.9688 13.7499ZM4.21875 12.6562H15.7812V10.078C15.7812 6.87491 13.2078 4.2421 10.0437 4.21866H10C8.46672 4.21866 6.99623 4.82776 5.91204 5.91195C4.82784 6.99615 4.21875 8.46663 4.21875 9.99991V12.6562ZM17.0312 13.7499C17.0312 13.7085 17.0148 13.6687 16.9855 13.6394C16.9562 13.6101 16.9164 13.5937 16.875 13.5937H3.125C3.08356 13.5937 3.04382 13.6101 3.01451 13.6394C2.98521 13.6687 2.96875 13.7085 2.96875 13.7499V15.6249C2.96875 15.6664 2.98521 15.7061 3.01451 15.7354C3.04382 15.7647 3.08356 15.7812 3.125 15.7812H16.875C16.9164 15.7812 16.9562 15.7647 16.9855 15.7354C17.0148 15.7061 17.0312 15.6664 17.0312 15.6249V13.7499Z" fill="black"/>
</svg>
