<svg width="20" height="20" viewBox="0 0 20 20" fill="none" xmlns="http://www.w3.org/2000/svg">
<path d="M9.74912 9.74912C8.40861 9.74912 7.26106 9.27182 6.30646 8.31721C5.35186 7.36261 4.87456 6.21506 4.87456 4.87456C4.87456 3.53405 5.35186 2.3865 6.30646 1.4319C7.26106 0.4773 8.40861 0 9.74912 0C11.0896 0 12.2372 0.4773 13.1918 1.4319C14.1464 2.3865 14.6237 3.53405 14.6237 4.87456C14.6237 6.21506 14.1464 7.36261 13.1918 8.31721C12.2372 9.27182 11.0896 9.74912 9.74912 9.74912ZM0 17.061V16.086C0 15.3955 0.177718 14.7608 0.533155 14.1819C0.888591 13.6031 1.36081 13.1613 1.94982 12.8566C3.20908 12.227 4.48866 11.7548 5.78854 11.44C7.08842 11.1252 8.40861 10.9678 9.74912 10.9678C11.0896 10.9678 12.4098 11.1252 13.7097 11.44C15.0096 11.7548 16.2892 12.227 17.5484 12.8566C18.1374 13.1613 18.6096 13.6031 18.9651 14.1819C19.3205 14.7608 19.4982 15.3955 19.4982 16.086V17.061C19.4982 17.7312 19.2596 18.305 18.7823 18.7823C18.305 19.2596 17.7312 19.4982 17.061 19.4982H2.43728C1.76703 19.4982 1.19325 19.2596 0.715951 18.7823C0.23865 18.305 0 17.7312 0 17.061Z" fill="#978DFF"/>
</svg>
